<?xml version="1.0" encoding="utf-8"?>
<!-- Generator: Adobe Illustrator 16.0.0, SVG Export Plug-In . SVG Version: 6.00 Build 0)  -->
<!DOCTYPE svg PUBLIC "-//W3C//DTD SVG 1.1//EN" "http://www.w3.org/Graphics/SVG/1.1/DTD/svg11.dtd">
<svg version="1.1" id="Isolation_Mode" xmlns="http://www.w3.org/2000/svg" xmlns:xlink="http://www.w3.org/1999/xlink" x="0px"
	 y="0px" width="595.279px" height="841.891px" viewBox="0 0 595.279 841.891" enable-background="new 0 0 595.279 841.891"
	 xml:space="preserve">
<path fill="#57A4B2" d="M375.374,0C254,0,155.468,98.532,155.468,219.906c0,59.494,23.525,113.362,61.881,152.911
	c-2.728,20.627-8.864,56.767-8.864,56.767s29.832-10.229,57.107-19.093c32.219,18.581,69.722,29.321,109.782,29.321
	c121.374,0,219.905-98.532,219.905-219.906S496.748,0,375.374,0z M401.285,112.681l-7.671,146.263h-36.48l-7.671-146.263H401.285z
	 M393.784,329.688c-5.113,3.921-11.251,5.967-18.41,5.967c-7.33,0-13.638-2.046-18.752-5.967c-5.114-3.92-7.671-10.398-7.671-19.434
	c0-9.375,2.557-16.024,7.671-19.774c5.114-3.75,11.422-5.625,18.752-5.625c7.159,0,13.297,1.875,18.41,5.625
	c5.114,3.75,7.672,10.399,7.672,19.774C401.456,319.29,398.899,325.768,393.784,329.688z"/>
<g>
	<path fill="#7E8A95" d="M187.005,522.238c-3.239-0.512-4.432,0.511-5.966,2.897c-27.446,43.3-54.892,86.429-82.167,129.558
		c-1.363,2.216-2.216,5.114-2.216,7.842c-0.171,44.492-0.171,88.984-0.171,133.478c0,8.693-0.17,17.217,0,25.911
		c0.171,11.933,8.864,20.456,19.945,19.945c10.569-0.512,17.899-9.206,17.899-21.139c0-46.879,0-93.758,0-140.638
		c0-3.068-1.193-7.33,3.75-7.5c5.285-0.171,4.092,4.432,4.092,7.5c0,46.197,0,92.395,0,138.422c0,2.728,0.17,5.455,0.682,8.012
		c1.704,10.398,12.614,17.389,22.843,14.661c9.205-2.387,14.49-9.547,14.49-19.775c0-43.128,0-86.087,0-129.216
		c-0.171,0-0.171,0-0.341,0c0-43.299,0-86.599,0-130.068c0-2.557-1.023-6.478,3.238-6.478s3.068,3.921,3.068,6.478
		c0.341,37.333,0.512,74.495,0.853,111.828c0,8.864,6.819,15.684,15.343,15.854c8.353,0.171,15.854-6.818,15.854-15.342
		c-0.171-39.549-0.341-79.098-0.853-118.647C217.349,539.285,203.541,524.966,187.005,522.238z"/>
	<path fill="#7E8A95" d="M96.656,618.383c0,1.364,0,2.728,0,4.092c0.341,0,0.682,0.17,1.022,0.17
		c21.309-33.412,42.447-66.824,64.097-100.918c-15.854,0-31.025,0.171-46.026-0.17c-2.728,0-5.626-0.853-7.842-2.046
		c-16.536-9.205-32.9-18.581-49.096-28.128c-2.216-1.363-4.262-3.58-5.455-5.966c-7.841-15.002-15.172-30.174-22.843-45.175
		c-3.58-7.16-10.058-10.91-16.706-9.717C2.387,432.571-3.068,443.311,2.216,454.05c8.523,17.218,17.218,34.095,25.741,51.312
		c2.216,4.603,5.455,8.013,10.058,10.569c18.581,10.398,36.821,21.139,55.402,31.537c2.558,1.363,3.58,2.897,3.409,5.966
		C96.486,574.913,96.656,596.562,96.656,618.383z"/>
	<path fill="#7E8A95" d="M100.066,452.346c5.626,3.75,11.081,7.842,16.877,11.08c6.478,3.751,13.467,6.479,21.138,6.819
		c3.068-0.512,6.137-0.683,9.205-1.534c11.763-3.239,21.82-9.888,31.026-17.559c1.534-1.193,2.045-4.603,1.704-6.648
		c-0.682-4.603-2.387-9.035-3.409-13.467c-0.853-3.921-3.068-6.479-6.648-8.183c-8.694-4.262-17.388-8.695-25.911-13.297
		c-3.58-1.875-6.819-2.045-10.398-0.17c-8.694,4.603-17.389,9.035-26.253,13.468c-3.409,1.704-5.455,4.262-6.478,7.842
		c-1.193,4.432-2.216,9.034-3.58,13.467C96.316,447.743,96.997,450.471,100.066,452.346z M129.045,430.185c0.342,0,0.512,0,0.853,0
		c3.068,0,6.137,0,9.206,0c2.727,0,5.284-0.171,8.012,0c5.455,0.17,9.376,3.921,9.546,8.693c0.171,5.114-2.897,8.865-8.353,9.206
		c-6.479,0.341-13.126,0.341-19.774-0.171c-4.773-0.341-8.013-4.262-7.842-8.864C120.693,434.616,124.273,430.696,129.045,430.185z"
		/>
	<path fill="#7E8A95" d="M106.714,479.109c-0.853,17.047,14.49,32.048,32.048,32.048c17.389-0.17,32.561-15.172,32.049-32.048
		C149.161,491.724,128.023,491.554,106.714,479.109z"/>
	<path fill="#7E8A95" d="M554.027,657.421c-3.751-9.206-13.979-13.468-23.185-9.888c-69.893,28.128-135.693,27.616-178.481,22.332
		c-46.708-5.796-77.223-18.581-77.734-18.752c-9.034-3.921-19.433,0.341-23.354,9.376s0.341,19.434,9.375,23.354
		c0.342,0.17,1.705,0.682,4.092,1.704v144.729c0,6.307,5.114,11.421,11.422,11.421c6.307,0,11.421-5.114,11.421-11.421V693.049
		c14.66,4.262,34.775,9.035,58.982,12.104c15.001,1.875,32.56,3.238,51.993,3.238c34.776,0,75.688-4.432,118.988-18.24v140.127
		c0,6.307,5.113,11.421,11.421,11.421s11.422-5.114,11.422-11.421V682.139c1.193-0.512,2.387-1.022,3.75-1.534
		C553.174,677.024,557.606,666.626,554.027,657.421z"/>
</g>
</svg>
