<?xml version="1.0" encoding="utf-8"?>
<!-- Generator: Adobe Illustrator 16.0.0, SVG Export Plug-In . SVG Version: 6.00 Build 0)  -->
<!DOCTYPE svg PUBLIC "-//W3C//DTD SVG 1.1//EN" "http://www.w3.org/Graphics/SVG/1.1/DTD/svg11.dtd">
<svg version="1.1" id="Isolation_Mode" xmlns="http://www.w3.org/2000/svg" xmlns:xlink="http://www.w3.org/1999/xlink" x="0px"
	 y="0px" width="595.279px" height="841.891px" viewBox="0 0 595.279 841.891" enable-background="new 0 0 595.279 841.891"
	 xml:space="preserve">
<path fill="#57A4B2" d="M369.557,0C494.142,0,595.28,101.138,595.28,225.724S494.142,451.447,369.557,451.447
	c-41.121,0-79.616-11.023-112.687-30.097c-27.997,9.099-58.618,19.598-58.618,19.598s6.299-37.096,9.099-58.268
	c-39.37-40.595-63.518-95.889-63.518-156.957C143.833,101.138,244.971,0,369.557,0z"/>
<g>
	<path fill="#FFFFFF" d="M342.435,329.693c0-9.624,2.624-16.448,7.874-20.298c5.249-3.85,11.724-5.774,19.248-5.774
		c7.349,0,13.648,1.925,18.897,5.774s7.874,10.674,7.874,20.298c0,9.274-2.625,15.923-7.874,19.948
		c-5.249,4.024-11.549,6.124-18.897,6.124c-7.524,0-13.999-2.1-19.248-6.124C345.059,345.616,342.435,338.967,342.435,329.693z
		 M388.28,277.024h-37.446l-7.874-150.132h53.194L388.28,277.024z"/>
</g>
<g>
	<path fill="#7E8A95" d="M143.308,546.242l10.324-52.145c1.225-5.949,3.85-11.373,7.699-15.748c-2.1-0.524-4.375-0.875-6.649-0.875
		c-19.423-0.699-35.696,14.349-36.396,33.771C117.586,527.694,128.26,541.867,143.308,546.242z"/>
	<path fill="#7E8A95" d="M266.669,584.912c3.149-9.099,8.398-24.672,14.873-43.569l61.942,17.498
		c4.899,1.399,10.148-1.575,11.549-6.475c1.399-4.899-1.4-10.148-6.475-11.549l-61.067-17.323l1.05-3.149
		c1.75-4.899-0.875-10.148-5.774-11.898s-10.148,0.875-11.898,5.774l-1.4,4.024l-15.923-4.55c-4.899-1.399-10.148,1.4-11.549,6.475
		c-1.399,4.899,1.4,10.148,6.475,11.549l14.873,4.199c-15.748,46.02-1.225,3.85-14.873,43.745c-0.875,0.35-1.75,0.7-2.625,1.05
		l-61.242,31.846l-41.646-25.196l13.998,4.374c-4.199-2.624-7.699-5.949-10.498-10.148c-4.375-6.649-6.475-14.349-5.774-22.223
		l-26.947-2.975c-14.173-1.75-26.946,8.399-28.521,22.572L72.267,698.474c-0.875,7.874-0.875,15.749,0,23.447h0.175
		c0,0.525,7.524,51.095,11.373,77.166c-21.347,0-41.47-0.175-61.417,0C9.274,799.262,0.175,808.011,0,819.734
		c-0.175,11.899,9.099,20.823,21.872,20.823c28.347,0.175,56.868,0.175,85.215,0c14.523,0,23.622-10.849,21.697-25.022
		c-1.749-12.073-3.849-23.972-5.599-35.871c-2.1-13.298-4.024-26.597-5.949-40.07c1.925,0,3.149-0.175,4.024,0
		c16.272,4.025,40.771,8.225,57.218,12.424c-0.35,2.1-0.35,3.675-0.875,5.25c-4.374,18.723-8.924,37.445-13.298,56.343
		c-2.8,12.599,3.499,23.622,14.873,26.597c11.724,2.976,22.747-4.024,25.897-16.973c3.849-16.098,9.273-51.794,13.298-70.691
		c3.5-17.498,1.575-29.047-13.298-34.821c0,0-29.047-7.174-50.744-13.648l0,0l12.248-49.169l-41.295-38.146l49.869,30.097
		c5.074,3.149,11.374,3.324,16.798,0.524l41.12-21.522c-0.35,4.199,2.275,8.049,6.3,9.449c0.875,0.35,1.749,0.524,2.624,0.524
		c4.024,0.176,7.874-2.274,9.274-6.299l5.424-15.923l4.899-2.625c8.399-4.375,11.549-14.698,7.175-23.098
		C268.243,587.012,267.543,585.787,266.669,584.912z"/>
	<path fill="#7E8A95" d="M350.309,532.594c1.05-45.495,1.225-42.521,0.7-43.92c-1.051-3.5-4.55-5.425-8.05-4.375
		c-3.499,1.05-5.424,4.55-4.374,8.05L350.309,532.594z"/>
	<path fill="#7E8A95" d="M375.681,494.623c-4.199-0.525-7.874,2.625-8.399,6.824l-4.374,40.945l18.723-36.746
		C384.079,500.747,380.93,495.147,375.681,494.623z"/>
	<path fill="#7E8A95" d="M405.252,537.318c5.249-1.4,7.174-7.524,4.199-11.899c-2.449-3.324-7.174-4.199-10.674-1.574
		l-33.246,24.322L405.252,537.318z"/>
	<path fill="#7E8A95" d="M407.877,574.764c0.699-4.199-2.1-8.049-6.3-8.749l-40.595-6.649l35.695,20.647
		C401.228,582.812,407.002,580.013,407.877,574.764z"/>
	<path fill="#7E8A95" d="M359.582,616.408c0.7,5.075,5.949,8.05,10.674,5.949c3.85-1.749,5.6-6.124,3.85-9.974l-20.647-46.194
		L359.582,616.408z"/>
	<path fill="#7E8A95" d="M171.305,582.812c0.525,0.175,17.323,3.5,17.848,3.5c1.75,0,3.5-1.226,3.85-2.975l9.449-47.42
		l-20.473-4.024l5.074-25.197l20.473,4.024l4.375-22.223c0.35-2.1-0.875-4.024-2.976-4.374l-17.147-3.324
		c-11.199-2.275-22.048,5.074-24.147,16.272l-12.248,61.593C152.932,569.689,160.107,580.538,171.305,582.812z"/>
	<path fill="#7E8A95" d="M576.733,827.959l-39.896-126.335c3.85-3.675,6.124-8.925,6.124-14.523
		c0-11.199-9.099-20.298-20.298-20.298h-44.97l12.773,40.596h14.349L466.67,827.959c-1.575,5.249,1.225,10.849,6.475,12.424
		c1.05,0.35,1.925,0.524,2.975,0.524c4.199,0,8.049-2.625,9.448-6.999l36.221-114.262l36.221,114.262
		c1.4,4.199,5.25,6.999,9.449,6.999c1.05,0,1.925-0.175,2.975-0.524C575.507,838.808,578.482,833.208,576.733,827.959z"/>
	<path fill="#7E8A95" d="M351.359,707.398h30.446l-12.773-40.596h-33.421c-11.199,0-20.298,9.099-20.298,20.298
		c0,4.899,1.75,9.448,4.725,12.948l-40.42,127.91c-1.575,5.249,1.225,10.849,6.474,12.424c1.05,0.35,1.925,0.524,2.975,0.524
		c4.2,0,8.05-2.625,9.449-6.999l36.221-114.262l36.221,114.262c1.399,4.199,5.249,6.999,9.449,6.999c1.05,0,1.925-0.175,2.975-0.524
		c5.249-1.575,8.049-7.175,6.474-12.424L351.359,707.398z"/>
	<polygon fill="#7E8A95" points="456.871,666.803 433.774,666.803 446.547,707.398 469.645,707.398 	"/>
	<polygon fill="#7E8A95" points="389.854,666.803 402.627,707.398 425.725,707.398 412.951,666.803 	"/>
</g>
</svg>
