<?xml version="1.0" encoding="utf-8"?>
<!-- Generator: Adobe Illustrator 16.0.0, SVG Export Plug-In . SVG Version: 6.00 Build 0)  -->
<!DOCTYPE svg PUBLIC "-//W3C//DTD SVG 1.1//EN" "http://www.w3.org/Graphics/SVG/1.1/DTD/svg11.dtd">
<svg version="1.1" id="Isolation_Mode" xmlns="http://www.w3.org/2000/svg" xmlns:xlink="http://www.w3.org/1999/xlink" x="0px"
	 y="0px" width="595.279px" height="841.891px" viewBox="0 0 595.279 841.891" enable-background="new 0 0 595.279 841.891"
	 xml:space="preserve">
<path fill="#57A4B2" d="M363.368,0c-128,0-231.91,103.91-231.91,231.911c0,62.742,24.809,119.551,65.259,161.259
	c-2.877,21.753-9.349,59.865-9.349,59.865s31.461-10.787,60.225-20.135c33.978,19.596,73.528,30.921,115.775,30.921
	c128.001,0,231.911-103.91,231.911-231.911S491.369,0,363.368,0z M382.784,347.687c-5.394,4.135-11.865,6.292-19.416,6.292
	c-7.73,0-14.382-2.157-19.775-6.292c-5.393-4.135-8.089-10.966-8.089-20.495c0-9.888,2.696-16.899,8.089-20.854
	c5.394-3.955,12.045-5.933,19.775-5.933c7.551,0,14.022,1.978,19.416,5.933s8.09,10.966,8.09,20.854
	C390.874,336.72,388.178,343.552,382.784,347.687z M382.784,273.08h-38.472l-8.09-154.428h54.651L382.784,273.08z"/>
<g>
	<polygon fill="#7E8A95" points="0,546.159 10.787,542.024 36.495,608.721 109.844,608.721 109.844,620.227 28.585,620.227 	"/>
	<path fill="#7E8A95" d="M0,646.294c0-7.551,6.112-13.843,13.843-13.843h180.136c7.551,0,13.843,6.112,13.843,13.843
		c0,7.551-6.112,13.843-13.843,13.843H80.9v154.068h26.247c7.551,0,13.843,6.112,13.843,13.843s-6.112,13.843-13.843,13.843H13.843
		C6.292,841.891,0,835.778,0,828.048c0-0.899,0.18-1.798,0.359-2.697v-176.18C0.18,648.092,0,647.193,0,646.294z"/>
	<path fill="#7E8A95" d="M318.563,719.822h67.775c14.562,0,27.146-10.427,30.022-24.629l17.438-112.36
		c1.079-6.472,7.012-10.786,13.483-9.888c6.472,1.079,10.787,7.012,9.888,13.483l-17.438,112.72v0.359
		c-4.854,25.528-27.325,44.045-53.213,44.045h-3.057v40.449l45.843,21.214c2.517,1.079,3.596,4.135,2.337,6.651
		c-1.078,2.518-4.135,3.596-6.651,2.338l-41.708-19.596v18.696c0,2.696-2.157,5.034-5.034,5.034c-2.696,0-5.033-2.157-5.033-5.034
		v-18.696l-41.708,19.235c-0.72,0.36-1.438,0.54-2.157,0.54c-1.798,0-3.596-1.079-4.495-2.877c-1.078-2.517,0-5.393,2.338-6.651
		l45.843-21.214v-40.449h-54.832c-6.472,0-11.686-5.214-11.686-11.686S312.091,719.822,318.563,719.822z"/>
	<path fill="#7E8A95" d="M216.99,572.945c2.158-11.865,11.686-21.393,24.091-23.371c7.55-1.078,74.966-9.707,120.988,30.023
		c17.618,15.101,38.473,43.686,38.473,93.483c0,14.382-10.428,26.247-24.091,28.404c-0.359,0-0.898,0.18-1.258,0.18
		c-0.72,0-1.438,0.18-2.157,0.18c-0.359,0-0.54,0-0.899,0h-0.359h-0.18c-0.18,0-0.539,0-0.719,0l-79.641-1.978l-0.36,0.359
		l5.394,122.068c0.359,10.247-7.551,18.876-17.798,19.416c-0.359,0-0.539,0-0.898,0c-9.888,0-18.157-7.73-18.517-17.799
		l-5.394-122.067c-0.359-10.247,3.416-20.314,10.427-27.506c7.191-7.55,17.259-11.865,27.506-11.505l50.517,1.258
		c-1.438-18.157-7.37-31.461-18.157-40.809c-22.292-19.236-62.562-18.338-74.786-16.54c-1.438,0.18-2.697,0.36-4.135,0.36v99.415
		c0,7.91-6.473,14.383-14.383,14.383s-14.382-6.473-14.382-14.383V580.676c-0.18-2.517-0.18-4.854,0.18-7.191
		C216.81,573.305,216.99,573.125,216.99,572.945z"/>
	<ellipse fill="#7E8A95" cx="174.563" cy="587.328" rx="33.079" ry="33.079"/>
	<ellipse fill="#7E8A95" cx="378.248" cy="832.183" rx="9.708" ry="9.708"/>
	<ellipse fill="#7E8A95" cx="329.53" cy="832.002" rx="9.708" ry="9.708"/>
	<ellipse fill="#7E8A95" cx="428.946" cy="832.002" rx="9.708" ry="9.708"/>
</g>
</svg>
