<?xml version="1.0" encoding="utf-8"?>
<!-- Generator: Adobe Illustrator 16.0.0, SVG Export Plug-In . SVG Version: 6.00 Build 0)  -->
<!DOCTYPE svg PUBLIC "-//W3C//DTD SVG 1.1//EN" "http://www.w3.org/Graphics/SVG/1.1/DTD/svg11.dtd">
<svg version="1.1" id="Isolation_Mode" xmlns="http://www.w3.org/2000/svg" xmlns:xlink="http://www.w3.org/1999/xlink" x="0px"
	 y="0px" width="595.279px" height="841.891px" viewBox="0 0 595.279 841.891" enable-background="new 0 0 595.279 841.891"
	 xml:space="preserve">
<path fill="#57A4B2" d="M375.374,0C254,0,155.468,98.532,155.468,219.906c0,59.494,23.525,113.362,61.881,152.911
	c-2.728,20.627-8.864,56.767-8.864,56.767s29.832-10.229,57.107-19.093c32.219,18.581,69.722,29.321,109.782,29.321
	c121.374,0,219.905-98.532,219.905-219.906S496.748,0,375.374,0z M401.285,112.681l-7.671,146.263h-36.48l-7.671-146.263H401.285z
	 M393.784,329.688c-5.113,3.921-11.251,5.967-18.41,5.967c-7.33,0-13.638-2.046-18.752-5.967c-5.114-3.92-7.671-10.398-7.671-19.434
	c0-9.375,2.557-16.024,7.671-19.774c5.114-3.75,11.422-5.625,18.752-5.625c7.159,0,13.297,1.875,18.41,5.625
	c5.114,3.75,7.672,10.399,7.672,19.774C401.456,319.29,398.899,325.768,393.784,329.688z"/>
<g>
	<path fill="#7E8A95" d="M45.857,700.439c-6.819,0-12.444,5.626-12.444,12.444c0,6.819,5.455,12.274,12.444,12.274
		s12.444-5.455,12.444-12.274C58.301,706.235,52.505,700.439,45.857,700.439z"/>
	<path fill="#7E8A95" d="M338.894,621.171c6.989,0,12.444-5.455,12.444-12.444c0-6.818-5.796-12.443-12.615-12.443
		c-6.648,0.17-12.104,5.625-12.104,12.273C326.619,615.887,331.905,621.171,338.894,621.171z"/>
	<path fill="#7E8A95" d="M77.223,760.445c-3.75,0-6.819,3.238-6.819,6.989c0,3.75,3.239,6.989,6.819,6.989
		c3.75,0,6.989-3.239,6.989-7.16C84.041,763.514,80.973,760.445,77.223,760.445z"/>
	<path fill="#7E8A95" d="M373.499,569.008c3.75-0.171,6.647-3.239,6.647-7.16c-0.17-3.921-3.068-6.648-6.988-6.648
		c-3.921,0-6.648,3.068-6.648,6.989C366.68,566.109,369.748,569.178,373.499,569.008z"/>
	<path fill="#7E8A95" d="M134.841,537.471c24.889-0.341,44.493-21.139,44.322-47.221c-0.17-25.229-20.968-45.855-46.026-45.515
		c-25.229,0.341-45.345,20.968-45.175,46.538C88.133,516.673,109.442,537.641,134.841,537.471z M108.419,471.84
		c10.058-7.33,21.479-10.569,32.219-11.081c19.092,0,30.002,11.593,30.002,30.003c-0.17,18.07-13.808,33.924-31.195,36.14
		c-19.264,2.558-36.14-8.353-41.084-26.593C95.122,488.887,98.531,478.999,108.419,471.84z"/>
	<path fill="#7E8A95" d="M287.923,761.639c-5.114-17.559-10.058-35.117-18.581-51.482c-1.022-2.046-2.046-2.897-4.433-2.557
		c-10.568,1.875-20.115,6.478-29.661,11.933c3.409,4.943,6.989,9.376,9.717,14.319c2.387,4.092,4.603,8.523,5.796,13.126
		c2.557,9.206,4.603,18.581,6.818,28.128c10.399-1.534,19.604-4.603,28.469-9.205C287.923,764.877,288.605,764.024,287.923,761.639z
		"/>
	<path fill="#7E8A95" d="M191.267,763.343c-1.363-2.728-2.216-5.966-2.728-9.034c-0.853-5.967-1.363-11.934-2.046-18.241
		c-12.103,0.853-23.013,4.262-33.411,9.206c4.432,21.138,13.979,39.549,23.524,58.13c10.398-3.409,20.627-6.648,29.662-13.297
		C201.155,781.242,196.04,772.378,191.267,763.343z"/>
	<path fill="#7E8A95" d="M211.553,799.482c-10.398,4.603-20.456,8.864-30.514,13.297c3.068,6.308,6.307,12.785,9.375,19.263
		c2.728,6.137,7.672,9.035,13.979,9.717c12.274,1.534,23.185-10.569,18.752-21.138C219.906,813.291,215.133,806.301,211.553,799.482
		z"/>
	<path fill="#7E8A95" d="M291.674,774.594c-10.569,3.58-20.798,7.16-31.708,10.74c1.534,6.478,3.068,13.126,4.773,19.944
		c2.387,9.376,9.717,13.638,19.434,11.592c9.205-2.045,16.194-11.251,14.148-19.604
		C296.447,789.425,293.719,781.754,291.674,774.594z"/>
	<path fill="#7E8A95" d="M287.582,548.551c5.796,4.944,5.796,4.944,11.592,0.512c1.534-1.193,3.068-2.387,4.433-3.75
		c4.432-4.433,5.625-11.422,3.068-17.047c-2.728-5.967-7.671-8.865-14.149-9.035c-5.966-0.171-9.717,4.091-14.319,6.989
		c-2.728,1.875-2.897,3.75-1.875,6.648C278.889,539.176,282.639,544.289,287.582,548.551z"/>
	<path fill="#7E8A95" d="M15.683,599.862c-0.17,0-0.341,0-0.341,0c-7.842,0-14.148,5.967-15.172,13.809
		c-0.852,7.33,4.433,14.831,11.592,16.535c2.558,0.512,5.285,1.022,7.842,1.022c1.364,0,3.409-1.022,3.751-2.045
		c2.045-5.455,3.579-11.251,5.284-16.877C27.446,601.567,26.082,600.033,15.683,599.862z"/>
	<path fill="#7E8A95" d="M103.646,540.71c-6.989-7.672-13.638-15.002-19.945-21.65c2.898,9.547,6.137,19.945,9.547,31.025
		C97.338,546.335,100.918,543.096,103.646,540.71z"/>
	<path fill="#7E8A95" d="M190.585,495.535c-1.534,6.478-2.898,12.104-4.262,17.899c3.068,0.511,6.137,1.022,10.229,1.534
		C194.506,508.32,192.631,502.354,190.585,495.535z"/>
	<path fill="#7E8A95" d="M132.284,595.26c3.58,11.763,7.16,23.014,10.739,34.946c19.945-6.137,39.72-12.273,59.494-18.411
		c-3.75-11.933-7.159-23.354-10.91-34.945C171.663,582.986,152.059,589.123,132.284,595.26z"/>
	<path fill="#7E8A95" d="M145.07,518.89c14.49-5.285,23.184-25.912,16.365-39.038c-3.75,1.875-7.33,3.58-11.251,5.626
		C154.786,503.206,154.616,503.888,145.07,518.89z"/>
	<path fill="#7E8A95" d="M160.241,473.203c-3.409-2.557-6.137-4.772-9.205-7.33c-2.558,4.943-4.943,9.035-7.16,13.297
		c1.875,1.534,3.239,2.728,4.943,4.091C152.4,480.022,155.98,476.954,160.241,473.203z"/>
	<path fill="#7E8A95" d="M558.458,634.979c-4.091-0.512-7.841,2.557-8.353,6.648c0,0.341-3.409,26.934-25.741,44.492
		c-16.706,13.126-39.89,17.899-68.87,14.149c-16.023-2.046-30.684-3.068-43.811-2.898c-22.502-31.196-57.618-51.312-102.964-58.642
		c-32.9-5.284-61.368-2.387-71.256-1.022c-5.625-17.047-10.569-34.436-15.854-51.652c-1.705-5.796,0.341-8.523,6.478-8.013
		c6.819,0.683,13.809,1.534,20.627,2.558c5.285,0.853,9.888-0.341,13.979-3.58c6.819-5.284,13.638-10.398,20.457-15.684
		c0.852-0.682,1.875-1.022,3.068-1.704c-9.206-6.989-15.513-14.49-19.264-24.548c-4.772,3.58-9.376,6.989-13.808,10.569
		c-2.558,2.045-4.943,2.387-8.013,1.022c-5.284-2.387-10.568-4.603-16.194-6.989c-2.216,4.092-4.091,7.842-6.308,12.104
		c-5.113-2.557-9.887-5.114-15.001-7.501c1.875-3.921,3.75-7.5,5.455-11.08c-9.035-5.114-18.24-7.671-27.957-8.354
		c-1.193,0-2.898,0.683-3.75,1.705c-17.218,21.309-38.867,28.298-65.29,21.309c-1.023-0.341-2.728-0.341-3.409,0.341
		c-7.842,7.33-15.684,14.831-24.037,22.673c4.604,2.387,8.013,4.091,11.593,6.137c-2.558,5.114-4.944,9.887-7.501,15.001
		c-5.114-2.557-9.888-4.943-15.001-7.33c-4.773,5.455-9.717,10.74-14.149,16.365c-3.239,4.092-6.648,5.114-11.592,4.092
		c-5.285-1.023-10.569-1.534-16.194-2.217c1.363,10.74,0.511,20.457-3.921,30.003c1.193,0.341,2.216,0.682,3.068,0.853
		c9.034,1.193,18.24,2.387,27.275,3.75c4.943,0.682,9.205-0.511,13.126-3.58c8.523-6.647,17.047-13.296,25.57-19.944
		c5.796-4.433,8.864-3.58,11.08,3.58c10.399,32.9,20.627,65.801,30.855,98.872c2.046,6.648,4.262,13.467,6.137,19.604
		c12.273-3.238,24.036-6.478,36.14-9.717c-0.853-8.353-1.705-17.217-2.728-26.081c-0.512-3.921,0.853-6.308,4.773-7.501
		c5.966-1.705,11.933-3.58,17.899-5.455c3.921-1.364,6.478-0.512,8.864,3.068c4.943,7.33,10.058,14.49,14.831,21.309
		c11.421-4.603,22.502-9.205,34.094-13.979c-2.046-4.432-4.433-9.717-6.819-15.001c-4.603-10.058-9.717-20.115-13.808-30.344
		c11.251-1.193,36.14-3.068,64.097,1.534c21.649,3.58,40.912,10.229,57.107,19.945c11.421,6.818,21.479,15.172,29.832,25.059
		c-6.819,0.682-13.126,1.875-18.752,3.409c-12.956,3.41-30.003,10.74-37.674,26.423c-8.183,16.706-2.898,38.356,13.638,54.892
		c8.864,8.864,20.968,14.831,33.753,16.706c2.898,0.512,5.796,0.682,8.523,0.682c9.888,0,19.093-2.728,26.252-7.842
		c9.206-6.647,14.661-16.876,15.513-29.491c1.023-13.467-3.068-29.32-12.103-47.391c-0.512-1.193-1.193-2.216-1.705-3.409
		c9.546,0.341,20.286,1.193,32.56,2.728c33.071,4.262,60.006-1.534,80.121-17.217c27.275-21.31,31.195-53.188,31.366-54.551
		C565.448,639.241,562.55,635.49,558.458,634.979z M171.152,544.801c3.75,0,7.16,3.409,6.989,7.16
		c-0.171,3.75-3.239,6.647-6.989,6.647c-3.921,0-6.818-2.728-6.818-6.647C164.162,548.04,167.231,544.801,171.152,544.801z
		 M136.376,555.37c3.92-0.171,6.989,3.068,6.989,7.159c0,4.092-3.069,6.989-7.16,6.819c-3.75-0.171-6.818-3.239-6.818-6.989
		C129.557,558.779,132.796,555.54,136.376,555.37z M204.564,620.83c-19.263,5.967-38.696,11.933-57.96,17.899
		c-1.363,0.341-2.728,0.682-3.409,0.853c-4.603-0.171-7.501-2.216-8.694-5.967c-3.75-12.104-7.671-24.377-11.251-36.48
		c-1.534-4.943,1.023-9.035,6.648-10.739c13.468-4.262,26.935-8.354,40.572-12.615c6.137-1.875,12.444-3.921,18.751-5.796
		c5.967-1.704,9.888,0.342,11.763,6.479c3.58,11.251,6.989,22.502,10.398,33.753C213.258,615.034,211.382,618.784,204.564,620.83z
		 M410.49,780.39c-12.785,9.206-35.798,5.455-49.266-8.012c-11.933-11.933-16.194-26.764-10.739-37.674
		c3.409-6.989,15.001-20.286,53.356-22.332c2.046,3.239,3.751,6.479,5.455,9.888C422.935,749.876,423.447,771.014,410.49,780.39z"/>
</g>
</svg>
