<svg xmlns="http://www.w3.org/2000/svg" viewBox="0 0 100 100"><defs><style>.cls-1{fill:#1b0c2b;}.cls-2{fill:#fff;}</style></defs><title>logo_Mirum</title><g id="Background"><circle class="cls-1" cx="50" cy="50" r="49.75"/><path class="cls-1" d="M50,.5A49.5,49.5,0,1,1,.5,50,49.56,49.56,0,0,1,50,.5M50,0a50,50,0,1,0,50,50A50,50,0,0,0,50,0Z"/></g><g id="Logo"><path class="cls-2" d="M86.09,56.9c3,.76,4.14-.71,4.78-1.64.24-.36.12-1.48-.16-1.38a4.34,4.34,0,0,0-.8.65c-.67.63-1.5,1.41-2.19,0h0a4.77,4.77,0,0,1-.62-2c-.2-1.65.13-2.79.05-4.45-.06-1.19-1-1.65-2.1-1.44A4.14,4.14,0,0,0,82.73,48l-1.44,1.59c-.17-.89-.27-1.7-.47-2.46a1.28,1.28,0,0,0-1.64-1,5.63,5.63,0,0,0-3.45,2.27c-.34.41-.68.7-1.07,1.19,0-.71,0-1.16,0-1.72,0-1-.55-1.36-1.38-.94a7.71,7.71,0,0,0-2.57,2.75c-1,1.48-2,4.33-3.33,5.17-1,.57-1.79,0-1.72-.48.23-1.65.46-3.29.68-4.93.19-1.48.45-3.25.56-4.74.07-1-.45-1.43-1.36-1.36-1.59.13-2.29,1.3-2.77,2.68-.36,1-.67,2.39-1,3.43A9.8,9.8,0,0,1,59.45,54a4.34,4.34,0,0,1-1.59.91c-.6.19-.91-.1-1-.82a5.86,5.86,0,0,1,0-1.39c.27-2.11.59-3.66.84-5.77.15-1.3-.65-1.48-1.89-1.27A2.36,2.36,0,0,0,54,46.92c-.09.2-.15.36-.2.5h0a3.1,3.1,0,0,0-.11.46,19.82,19.82,0,0,1-2.6,5.93c-1.16,1.84-2.87,3.58-3.41,2.91-1.12-1.41.62-4.48,1.43-6.29s1.69-2.51,1.08-3.8c-.49-1-1.29-2.3-2.51-2.16a18.47,18.47,0,0,0-2.92.69c-.94.26-.28-.72-.15-1.41.17-1.09-.89-1.2-1.88-1A2,2,0,0,0,41,44.53c-.16,1,.85,1.85.85,1.92s-.73,2.16-1.08,3c-1.13,2.77-1.68,3.67-2.49,4s-1.15-.63-1.05-1.4c.26-2.2.93-4.66,1-6.87s-.16-2.92-1.45-3.84c-.34-.25-1.32-.19-2,1.41-.1.24-1,2.41-1.83,4.43a48.76,48.76,0,0,1-3.35,6.58c-.54.71-1.09,1.1-1.35.53A7.83,7.83,0,0,1,27.7,52c-.16-1.63,0-3.41-.18-5-.12-1.24-.87-1.63-2.09-1.29a4.83,4.83,0,0,0-2.37,1.6L21.57,49c-.21-.86-.35-1.65-.6-2.39s-.9-1.09-1.84-.86a6.49,6.49,0,0,0-3.55,2.56l-.73.94A14.63,14.63,0,0,0,14.74,47c-.14-.88-.56-1.07-1.38-.85a7.27,7.27,0,0,0-1.28.46,7.23,7.23,0,0,0-2.83,2c-.35.58-.31,1.79,0,1.77.72,0,1.46-1.07,1.75-1.38A4.38,4.38,0,0,1,12.06,48s-.17.67-.32,1.17-.49,1.73-.52,1.87a15.78,15.78,0,0,0-.56,4.5c0,1.06-.1,2.19,1.5,2.58.47.11.89.28,1.17.11a1.86,1.86,0,0,0,1-1.49c.1-.6-.13-2.41,0-3.91a5.37,5.37,0,0,1,2.46-4.11c.71-.49,1.5-.27,1.61.52a5,5,0,0,1,0,1.21c-.19,1.55-.37,2.23-.55,3.78s-.46,2.22.94,3a7.41,7.41,0,0,0,1.43.45c1.23,0,1.4-.86,1.46-1.79A31.11,31.11,0,0,0,21.45,52a2.5,2.5,0,0,1,1.15-2.54c.53-.46,1.15-1,1.8-.6s.53,1,.45,1.7a19.79,19.79,0,0,0-.26,3.59,2.84,2.84,0,0,0,2.05,2.73c1.37.35,2.46-.47,3.31-1.47,1.5-1.72,2.46-4.28,3.15-5.7s.77-1.79.88-2c-.07,1.73-.66,3.27-.65,5.05,0,1,0,2.48.68,3.26a1.67,1.67,0,0,0,1.7.75c2.42-.3,4.09-2.64,4.78-3.85.94-1.65,1.58-3.26,2.07-4.24.61-1.23,1.42-1.55,2.92-1.39.92.09,1.48.46,1.18,1-.72,1.39-3.48,5.94-3.83,7-.47,1.47.11,3.94,2.39,3.9,3.83-.07,6.44-4,7.82-6.81a6.49,6.49,0,0,0,.61,3.1,2.64,2.64,0,0,0,2.14,1.77,5,5,0,0,0,3.78-1.39c.8-.78,1.5-1.68,2.24-2.53,0,.2,0,.41,0,.63a7.78,7.78,0,0,0,.44,2.31c.17.49.51,1.08,1.06,1.16a3.73,3.73,0,0,0,1.45-.07,6.13,6.13,0,0,0,4-2.61c.91-1.34,2.13-3.66,2.83-4.75-.06.2-.24.76-.31,1a14.35,14.35,0,0,0-.4,4.5c0,1.5.36,2.32,1.88,2.71s1.87-.59,1.82-1.81a23,23,0,0,1-.27-3.64A4.84,4.84,0,0,1,76.83,49c.74-.46,1.27-.17,1.31.7a6.18,6.18,0,0,1-.1,1.21c-.24,1.53-.37,2.92-.6,4.45-.44,2.89,2,2.77,2.25,2.81,1.21.17,1.68.21,1.72-1.14S81,54.51,81,53.07a3.15,3.15,0,0,1,1.2-2.84c.5-.43,1.1-.86,1.7-.49s.48,1.11.39,1.77a8.84,8.84,0,0,0-.16,2.27c.06,1.62.44,2.12.89,2.54A3.09,3.09,0,0,0,86.09,56.9Z"/><path class="cls-2" d="M40.15,36.55c.09,0,.23,0,.48-.07a1.52,1.52,0,0,0,.42-.29l-.28.14a1.42,1.42,0,0,1-.34,0s.56-.3.78-.52a1.31,1.31,0,0,0,.4-.84,5.61,5.61,0,0,0-.06-.81c0-.24,0-.26,0-.29s-.08,0-.07-.08.33-.56.44-.79c.24-.55-.52-1.57-.82-1.74a1,1,0,0,0-.34-.11A2.63,2.63,0,0,0,38.24,31c-1,.47-2,1.5-.47,4.34A2,2,0,0,0,40.15,36.55Z"/></g></svg>